<?xml version="1.0" encoding="utf-8"?>
<!-- Generator: Adobe Illustrator 19.2.0, SVG Export Plug-In . SVG Version: 6.00 Build 0)  -->
<svg version="1.1" id="Ebene_1" xmlns="http://www.w3.org/2000/svg" xmlns:xlink="http://www.w3.org/1999/xlink" x="0px" y="0px"
	 viewBox="0 0 86 86" style="enable-background:new 0 0 86 86;" xml:space="preserve">
<style type="text/css">
	.st0{fill:#FFFFFF;}
	.st1{fill:#1F1F1F;}
	.st2{fill:none;}
	.st3{font-family:'SourceSansPro-Semibold';}
	.st4{font-size:9px;}
</style>
<g>
	<path class="st0" d="M43.8,49c0,1.3-1.4,2.5-2.7,2.5H22c-1.3,0-2.2-1.3-2.2-2.5v-1.2v-3.6v-3.6c0-1.3,1-2.1,2.2-2.1h19.1
		c1.3,0,2.7,0.8,2.7,2.1V49z"/>
	<path class="st1" d="M67.4,44.5l3.4,0.5c0.3,0,0.5,0.2,0.5,0.5l0.4,1.8c0.1,0.3-0.2,0.6-0.5,0.6h-3.1c-0.4,0-0.7-0.2-0.8-0.6
		L66.7,45C66.8,44.8,67.1,44.5,67.4,44.5z"/>
	<g>
		<path class="st1" d="M20.7,58.1c-1.8-0.4-3.2-0.9-4.2-1.5c-0.1-0.1-0.3-0.2-0.3-0.4c-0.5-1.6-0.2-3.2,1.4-4.8L17.3,51
			c-0.1,0.1-0.2,0.3-0.2,0.4c-0.8,0.4-2.1,2-2.4,2.4c-1.3,1.3-0.5,9.7,0,16.4c-0.1,1.6,0.2,3.6,0.7,4.8c0.4,1,4.1,1.1,6.1,0.8
			L20.7,58.1z"/>
		<path class="st1" d="M42.2,65.5l-0.2,5h16.7l0.1,1.8l5.3,0.2c0,0,0.3,2.9,0.8,3c1.1,0.5,6.6,0.7,7-0.6c0.5-1.2,0.7-3.2,0.7-4.8
			c0.5-6.7,1.2-15.1-0.1-16.4c-0.3-0.4-1.5-2-2.4-2.4c-0.4-0.7-1.3-2.5-3.4-4c-0.3-0.7-4.4-9.7-8.1-10.8c-2.8-0.2-5.8-0.3-8.7-0.4
			l0.4,1.1c2.8,0.1,5.6,0.3,8.5,0.6c0.2,0,0.4,0.1,0.6,0.2c2.4,2.1,4,4.7,4.9,7.7c0.1,0.4-0.1,0.9-0.6,1c-5,0.7-10.1,1.1-15.4,1.3
			l-3.1,3.9L42.8,53l-0.5,9.5 M71,56.4c-0.1,0.2-0.2,0.3-0.3,0.4c-1.6,1-4.8,1.8-9,2.4c-0.2,0.1-2,0-2.8-0.4
			c-0.2-0.1-0.3-0.4-0.2-0.6c0.5-1,1.2-2.1,2.1-3.2c0.1-0.1,0.2-0.2,0.4-0.3c1.7-0.7,3.2-1.3,4.7-1.9c1.1-1,2.1-1.6,3.1-1.5
			c0.2,0,0.3,0.1,0.4,0.2C71.2,53,71.6,54.7,71,56.4z"/>
	</g>
	<path class="st1" d="M31.3,2.5h0.2c-7.6,0-7.2,4.3-7.2,8.8c-0.5,0-0.7,0.4-0.6,1.7c0,2.3,1.1,3.2,1.1,3.2c0,0.6,0,2.4,0,2.4
		l4.5,3.8h4l4.5-3.8c0,0,0-1.8,0-2.4c1,0,1.2-0.9,1.2-3.2c0-1.3,0-1.7-0.5-1.7C38.5,6.8,38.9,2.5,31.3,2.5L31.3,2.5L31.3,2.5z"/>
	<g>
		<path class="st2" d="M43.8,49v-8.3c0-1.3-1.4-2.1-2.7-2.1H22c-1.3-0.1-2.2,0.7-2.2,2v3.6v3.6V49c0,1.3,1,2.5,2.2,2.5h19.1
			C42.4,51.5,43.8,50.2,43.8,49z"/>
		<path class="st1" d="M41.1,51.9l2.9-1.2l6.4-8l-5.8-15.9l-7.5-3l-3.7,7.9l-0.8-3.9c0.7-0.4,1.2-1.1,1.2-1.9c0-1.2-0.8-2.2-2-2.2
			l0,0c-1.2,0.1-2.2,1-2.2,2.2c0,0.8,0.4,1.5,1.1,1.9l-0.9,3.9l-3.7-7.9l-7.5,3l-5.8,15.8l2.9,3.6l-0.3,0.9
			c-0.1,0.3,0.2,0.4,0.5,0.4H17l2.2,2.8l2.9,1.4l1.3,31.8h6.1l2.2-4.1l2,4.1h6.1l0.8-19.1v-0.7L41.1,51.9z M22,51.5
			c-1.3,0-2.2-1.3-2.2-2.5v-1.2v-3.6v-3.6c0-1.3,1-2.1,2.2-2.1h19.1c1.3,0,2.7,0.8,2.7,2.1v8.3c0,1.3-1.4,2.5-2.7,2.5L22,51.5
			L22,51.5z"/>
	</g>
</g>
<text transform="matrix(1 0 0 1 23.4564 47.9517)" class="st3 st4">YOU</text>
</svg>
